<svg xmlns="http://www.w3.org/2000/svg" width="64" height="64" viewBox="0 0 64 64"><path d="M54 31.2h-2c-.1 0-.4-.2-.4-.3l-2.8-7.3c-.3-.9-1.3-1.6-2.3-1.6H40c-1.1 0-2 .9-2 2.1V40h-6l4.3-21.4H41c.6 0 1-.4 1-1s-.4-1-1-1h-6.3L33.4 23H10c-1.7 0-3 1.4-2.9 3.1l.9 13c0 1.6 1.4 2.9 3 2.9h4.1c.5 2.3 2.5 4 4.9 4s4.4-1.7 4.9-4h17.2c.5 2.3 2.5 4 4.9 4s4.4-1.7 4.9-4H54c1.1 0 2-.9 2-2v-6.7c0-1.2-.9-2.1-2-2.1zM20 44c-1.4 0-2.6-1-2.9-2.3v-.2c0-.2-.1-.4-.1-.6s0-.4.1-.6v-.2C17.4 39 18.6 38 20 38s2.6 1 2.9 2.3v.2c0 .2.1.4.1.6s0 .4-.1.6v.2C22.6 43 21.4 44 20 44zm10-4h-5.1c-.5-2.3-2.5-4-4.9-4s-4.4 1.7-4.9 4H11c-.5 0-1-.4-1.1-1l-.8-13c0-.6.4-1 .9-1h23l-1 4.8v.1L30 40zm17 4c-1.4 0-2.6-1-2.9-2.3v-.2c0-.2-.1-.4-.1-.6 0-.2 0-.4.1-.6v-.2C44.4 39 45.6 38 47 38s2.6 1 2.9 2.2v.2c0 .2.1.4.1.6 0 .2 0 .4-.1.6v.2C49.6 43 48.4 44 47 44zm7-4h-2.1c-.5-2.3-2.5-4-4.9-4-2.4 0-4.4 1.7-4.9 3.9H40V24.1h6.5c.1 0 .4.2.4.3l2.6 6.9H48c-.6 0-1 .4-1 1s.4 1 1 1h6V40zm-10.5-7.7a1 1 0 1 0 2 0 1 1 0 1 0-2 0zM54 47H30c-.6 0-1 .4-1 1s.4 1 1 1h24c.6 0 1-.4 1-1s-.4-1-1-1zm-28 0H10c-.6 0-1 .4-1 1s.4 1 1 1h16c.6 0 1-.4 1-1s-.4-1-1-1z"></path></svg>