<svg version="1.1" baseProfile="full" xmlns="http://www.w3.org/2000/svg" xmlns:xlink="http://www.w3.org/1999/xlink" xmlns:ev="http://www.w3.org/2001/xml-events" xml:space="preserve" x="0px" y="0px" width="20px" height="20px"  viewBox="0 0 20 20" preserveAspectRatio="none" shape-rendering="geometricPrecision"><path fill-rule="evenodd" fill="#d88861" d="M18.009,19.003 L2.221,19.003 C1.120,19.003 0.225,18.092 0.225,16.973 L0.225,6.731 L0.225,6.482 L0.225,2.177 C0.225,1.059 1.120,0.149 2.221,0.149 L18.009,0.149 C19.110,0.149 20.007,1.059 20.007,2.177 L20.007,6.482 L20.007,6.731 L20.007,16.973 C20.007,18.092 19.110,19.003 18.009,19.003 ZM18.372,10.552 L14.858,10.552 C14.689,10.552 14.552,10.692 14.552,10.864 L14.552,12.593 C14.552,12.765 14.689,12.905 14.858,12.905 L18.372,12.905 L18.372,10.552 ZM18.372,3.464 L3.456,3.464 C3.230,3.464 3.048,3.278 3.048,3.049 C3.048,2.820 3.230,2.634 3.456,2.634 L18.372,2.634 L18.372,2.177 C18.372,1.974 18.210,1.809 18.009,1.809 L2.221,1.809 C2.022,1.809 1.859,1.974 1.859,2.177 L1.859,4.492 C1.977,4.470 2.097,4.454 2.221,4.454 L18.009,4.454 C18.133,4.454 18.254,4.470 18.372,4.492 L18.372,3.464 ZM18.372,6.482 C18.372,6.280 18.210,6.115 18.009,6.115 L2.221,6.115 C2.022,6.115 1.859,6.280 1.859,6.482 L1.859,6.731 L1.859,16.973 C1.859,17.176 2.022,17.342 2.221,17.342 L18.009,17.342 C18.210,17.342 18.372,17.176 18.372,16.973 L18.372,14.564 L14.858,14.564 C13.789,14.564 12.918,13.680 12.918,12.593 L12.918,10.864 C12.918,9.777 13.789,8.893 14.858,8.893 L18.372,8.893 L18.372,6.731 L18.372,6.482 Z"/></svg>