<svg xmlns="http://www.w3.org/2000/svg" width="64" height="64" viewBox="0 0 64 64"><path d="M42.5 13.813a20.902 20.902 0 0 0-11.875-2.77 1.004 1.004 0 0 0-.283-.005l-.995.122a1 1 0 0 0 .244 1.985l.534-.066.003.012a18.981 18.981 0 1 1-7.626 2.45v-.001l.607-.336a1 1 0 0 0-.97-1.75l-.17.095v-.001q-.214.115-.424.236l-.282.156a1.022 1.022 0 0 0-.132.087 21.003 21.003 0 1 0 21.369-.214zM25 12.937a1 1 0 1 0 2 0 1 1 0 1 0-2 0zM46.965 34.02a.997.997 0 0 0 1.017-.981l.008-.478q.01-.261.01-.521l.002-.161a1.034 1.034 0 0 0-.005-.122 16 16 0 1 0-2.172 8.33l.015-.025q.285-.492.537-1.009l.02-.037a1 1 0 0 0-1.767-.939l-.528.995a14 14 0 1 1 1.897-7.02l-.007.43-.008.193.004.002-.006.327a.995.995 0 0 0 .983 1.017zm-10.487 4.638a2.719 2.719 0 0 0 2.294-1.015 4.912 4.912 0 0 0 .782-3.028 4.821 4.821 0 0 0-.795-2.975 2.698 2.698 0 0 0-2.28-1.041q-3.033 0-3.033 4.016a4.891 4.891 0 0 0 .79 3.002 2.649 2.649 0 0 0 2.242 1.041zm-.62-5.682q.198-.54.638-.54.843 0 .843 2.197 0 2.215-.843 2.215-.44 0-.638-.55a5.24 5.24 0 0 1-.197-1.665 5.154 5.154 0 0 1 .197-1.657zm.743-7.326h-2.109L27.364 38.5h2.109l7.128-12.85zm-6.829 6.869a4.93 4.93 0 0 0 .782-3.037 4.821 4.821 0 0 0-.795-2.975 2.698 2.698 0 0 0-2.28-1.041q-3.033 0-3.033 4.016a4.908 4.908 0 0 0 .79 3.01 2.649 2.649 0 0 0 2.242 1.042 2.719 2.719 0 0 0 2.294-1.015zm-2.276-.804q-.44 0-.638-.55a5.24 5.24 0 0 1-.197-1.665 5.154 5.154 0 0 1 .197-1.657q.198-.54.638-.54.843 0 .843 2.197 0 2.215-.843 2.215z"></path></svg>