<svg viewBox="0 0 20 12" fill="none" xmlns="http://www.w3.org/2000/svg">
<path d="M18.9945 10.1263C18.9724 10.0788 18.952 10.0395 18.9329 10.0079C18.6174 9.43977 18.0146 8.74243 17.1248 7.91565L17.106 7.89674L17.0966 7.88741L17.087 7.87795H17.0775C16.6737 7.49298 16.4179 7.23407 16.3108 7.10159C16.1149 6.8491 16.071 6.59359 16.178 6.33468C16.2537 6.13904 16.5379 5.72595 17.03 5.09468C17.2889 4.76013 17.4939 4.49213 17.6453 4.29007C18.7372 2.83843 19.2106 1.91092 19.0653 1.50692L19.0089 1.4125C18.971 1.35565 18.8732 1.30377 18.7156 1.25625C18.5577 1.20898 18.3558 1.2011 18.1095 1.23274L15.3834 1.25153C15.3391 1.23589 15.2761 1.23734 15.1939 1.25625C15.1118 1.27528 15.0708 1.28474 15.0708 1.28474L15.0234 1.3085L14.9857 1.33698C14.9541 1.35577 14.9194 1.38898 14.8815 1.43625C14.8438 1.4834 14.8123 1.5388 14.7871 1.60195C14.4903 2.36559 14.1528 3.07553 13.774 3.73189C13.5406 4.12316 13.326 4.46231 13.1301 4.74959C12.9346 5.03662 12.7705 5.24813 12.6381 5.38365C12.5054 5.5194 12.3858 5.62813 12.2783 5.71031C12.171 5.79238 12.0891 5.82716 12.0323 5.81444C11.9754 5.80171 11.9219 5.7891 11.8711 5.7765C11.7829 5.71965 11.7118 5.64244 11.6583 5.54462C11.6046 5.4468 11.5683 5.32365 11.5494 5.17541C11.5305 5.02692 11.5194 4.89928 11.5162 4.79201C11.5133 4.68474 11.5146 4.5331 11.5211 4.33759C11.5276 4.14183 11.5305 4.00934 11.5305 3.93989C11.5305 3.70013 11.5352 3.43977 11.5446 3.15892C11.5541 2.87807 11.5619 2.65553 11.5683 2.49165C11.5748 2.32753 11.5778 2.15395 11.5778 1.97092C11.5778 1.78789 11.5666 1.64437 11.5446 1.54013C11.5229 1.43613 11.4894 1.33516 11.4454 1.23722C11.4012 1.1394 11.3364 1.06377 11.2514 1.01007C11.1663 0.956374 11.0603 0.913829 10.9343 0.882192C10.5997 0.806435 10.1738 0.765586 9.65621 0.759161C8.48239 0.746555 7.72821 0.822313 7.39366 0.986434C7.26118 1.05577 7.1413 1.15056 7.03403 1.27031C6.92045 1.40922 6.90457 1.4851 6.98663 1.49746C7.3653 1.55419 7.63342 1.68995 7.79124 1.9045L7.84809 2.01819C7.89233 2.10025 7.93645 2.24547 7.98069 2.45371C8.02481 2.66195 8.0533 2.89225 8.06578 3.14462C8.0973 3.60534 8.0973 3.99977 8.06578 4.32789C8.03415 4.65613 8.00433 4.91165 7.97584 5.09468C7.94736 5.27771 7.90481 5.42607 7.84809 5.53965C7.79124 5.65322 7.7533 5.72268 7.73439 5.74789C7.71548 5.7731 7.69972 5.78898 7.68712 5.79516C7.60506 5.82656 7.51984 5.84268 7.43148 5.84268C7.34312 5.84268 7.23585 5.79844 7.10966 5.70995C6.98348 5.62159 6.85257 5.50013 6.71681 5.34559C6.58118 5.1908 6.42809 4.97468 6.25766 4.6971C6.08724 4.41941 5.91051 4.09128 5.7276 3.71262L5.57609 3.43795C5.48142 3.26134 5.35209 3.00413 5.18809 2.66656C5.02384 2.32886 4.87875 2.00219 4.75257 1.68656C4.70215 1.55407 4.62639 1.45322 4.52542 1.38377L4.47803 1.35528C4.44651 1.33007 4.39597 1.30328 4.32663 1.2748C4.25718 1.24631 4.18469 1.22595 4.10881 1.21334L1.51503 1.23213C1.24998 1.23213 1.07014 1.29225 0.975433 1.41213L0.937543 1.46886C0.91861 1.5005 0.909058 1.55092 0.909058 1.62037C0.909058 1.68983 0.927991 1.77504 0.965894 1.87589C1.34454 2.76583 1.75632 3.62413 2.20121 4.4508C2.64611 5.27759 3.03272 5.94353 3.36082 6.44813C3.68894 6.9531 4.02348 7.42959 4.36421 7.87759C4.70506 8.32571 4.93063 8.61286 5.04106 8.73904C5.1516 8.86547 5.23839 8.95989 5.30142 9.02304L5.53815 9.25019C5.68966 9.40171 5.91209 9.58316 6.20554 9.79444C6.49912 10.006 6.82409 10.2142 7.18057 10.4195C7.5373 10.6244 7.95209 10.7916 8.42554 10.921C8.89887 11.0504 9.35948 11.1024 9.8076 11.0773H10.8963C11.1171 11.0583 11.2843 10.9889 11.398 10.8691L11.4357 10.8216C11.4611 10.7839 11.4848 10.7255 11.5066 10.6467C11.5288 10.5678 11.5398 10.4809 11.5398 10.3863C11.5333 10.115 11.554 9.87056 11.6012 9.65286C11.6484 9.43516 11.7021 9.27104 11.7623 9.1605C11.8224 9.05019 11.8903 8.95698 11.9658 8.88147C12.0414 8.80571 12.0954 8.75989 12.127 8.74413C12.1584 8.72825 12.1835 8.71747 12.2024 8.71104C12.3539 8.6605 12.5322 8.70935 12.7374 8.85783C12.9426 9.00619 13.135 9.18922 13.315 9.40692C13.4949 9.62474 13.711 9.8691 13.9634 10.1405C14.216 10.4119 14.4367 10.6137 14.626 10.7464L14.8152 10.86C14.9417 10.9358 15.1058 11.0052 15.3077 11.0683C15.5094 11.1314 15.686 11.1472 15.8378 11.1156L18.2611 11.0778C18.5007 11.0778 18.6872 11.0381 18.8196 10.9594C18.9521 10.8805 19.0309 10.7936 19.0562 10.699C19.0815 10.6045 19.083 10.4971 19.0611 10.3771C19.0386 10.2573 19.0164 10.1736 18.9945 10.1263Z" fill="currentColor"/>
</svg>
